<?xml version="1.0" encoding="UTF-8" standalone="no"?>
<!-- Created with Inkscape (http://www.inkscape.org/) -->

<svg
   xmlns:dc="http://purl.org/dc/elements/1.1/"
   xmlns:cc="http://creativecommons.org/ns#"
   xmlns:rdf="http://www.w3.org/1999/02/22-rdf-syntax-ns#"
   xmlns:svg="http://www.w3.org/2000/svg"
   xmlns="http://www.w3.org/2000/svg"
   xmlns:sodipodi="http://sodipodi.sourceforge.net/DTD/sodipodi-0.dtd"
   xmlns:inkscape="http://www.inkscape.org/namespaces/inkscape"
   width="128"
   height="128"
   viewBox="0 0 128 128"
   id="svg2"
   version="1.1"
   inkscape:version="0.91 r13725"
   sodipodi:docname="Tide_Bringer_plain.svg">
  <defs
     id="defs4" />
  <sodipodi:namedview
     id="base"
     pagecolor="#ffffff"
     bordercolor="#666666"
     borderopacity="1.0"
     inkscape:pageopacity="0.0"
     inkscape:pageshadow="2"
     inkscape:zoom="2.3336563"
     inkscape:cx="-42.538521"
     inkscape:cy="123.78445"
     inkscape:document-units="px"
     inkscape:current-layer="layer1"
     showgrid="false"
     units="px"
     inkscape:window-width="1920"
     inkscape:window-height="1017"
     inkscape:window-x="1912"
     inkscape:window-y="-8"
     inkscape:window-maximized="1" />
  <metadata
     id="metadata7">
    <rdf:RDF>
      <cc:Work
         rdf:about="">
        <dc:format>image/svg+xml</dc:format>
        <dc:type
           rdf:resource="http://purl.org/dc/dcmitype/StillImage" />
        <dc:title></dc:title>
      </cc:Work>
    </rdf:RDF>
  </metadata>
  <g
     inkscape:label="Layer 1"
     inkscape:groupmode="layer"
     id="layer1"
     transform="translate(0,-924.36216)">
    <circle
       style="fill:#00395f;fill-opacity:1;stroke:none;stroke-width:1;stroke-linecap:round;stroke-linejoin:round;stroke-miterlimit:4;stroke-dasharray:none;stroke-opacity:1"
       id="path4136-3"
       cx="64"
       cy="988.36218"
       r="64" />
    <path
       style="fill:#c76859;fill-opacity:1;stroke:none;stroke-width:1;stroke-linecap:round;stroke-linejoin:round;stroke-miterlimit:4;stroke-dasharray:none;stroke-opacity:1"
       d="M 64,0 C 61.409852,0.02670946 58.394459,0.21064154 55.826604,0.55078125 L 71.480469,15.998047 77.938256,37.647573 92.423828,32.464844 103.14024,50.949385 c 4.22689,1.015237 8.12365,2.470659 8.96973,7.993644 6.33538,7.030957 14.88228,10.910826 14.95446,-3.053462 l -0.35764,-2.184742 C 121.74378,22.667169 95.431951,0.01720869 64,0 Z"
       transform="translate(0,924.36216)"
       id="path4136"
       inkscape:connector-curvature="0"
       sodipodi:nodetypes="cccccccccc" />
    <path
       style="fill:#418fb7;fill-opacity:1;stroke:#a0b86d;stroke-width:0.12476382;stroke-linecap:round;stroke-linejoin:round;stroke-miterlimit:4;stroke-dasharray:none;stroke-opacity:0.44378698"
       d="M 55.849609 0.25976562 C 25.69197 4.1449356 1.9566544 29.220532 0.36523438 60.476562 C 0.29923437 61.564642 0.2604 62.653981 0.25 63.744141 C 0.25 99.094051 28.791597 127.75 64 127.75 C 97.734096 127.75 125.33052 101.43834 127.58398 68.142578 C 127.68209 67.404409 127.7576 66.659444 127.80469 65.90625 C 127.88398 65.259256 127.9375 64.604067 127.9375 63.935547 C 127.9342 63.26266 127.87844 62.592632 127.79102 61.925781 C 127.75369 61.356031 127.69263 60.789666 127.625 60.222656 C 127.50045 58.136259 127.28645 56.055756 126.95898 53.990234 C 126.00335 60.359789 124.11903 66.384474 121.48047 71.953125 C 118.81717 73.941077 115.53019 75.110753 112 75.115234 C 105.82109 74.394478 100.74095 71.990342 99.265625 66.960938 C 99.483327 66.801291 99.704057 66.649385 99.917969 66.480469 C 103.79455 63.419229 104.00343 57.990199 103.74805 54.380859 C 103.74023 54.270358 103.72579 54.161124 103.7168 54.050781 C 104.45355 53.602265 105.22469 53.317701 106 53.263672 C 108.03692 53.121722 109.29383 55.139451 111.21289 58.613281 C 113.13194 62.087091 106.14062 68.234375 106.14062 68.234375 C 106.14062 68.234375 110.56856 67.917544 113.95898 65.240234 C 115.89727 63.709594 116.00074 60.996106 115.87305 59.191406 C 115.6255 55.692576 114.1874 52.333827 113.35156 51.248047 C 112.51572 50.162277 110.63039 47.978453 109.96289 48.064453 C 107.50179 48.38152 105.21663 49.270415 103.23438 50.585938 C 102.21421 45.079276 100.06905 40.269863 98.705078 38.498047 C 97.033399 36.326537 93.260781 31.958869 91.925781 32.130859 C 87.02083 32.76276 82.458819 34.521006 78.503906 37.136719 C 76.462729 26.128019 72.135231 16.538542 69.408203 12.996094 C 66.064833 8.6530638 58.519608 -0.084214375 55.849609 0.25976562 z M 40.753906 21.029297 C 48.463477 20.99962 53.413255 28.996124 60.849609 42.457031 C 68.525816 56.352081 40.558594 80.9375 40.558594 80.9375 C 40.558594 80.9375 53.336552 80.001675 65.496094 73.166016 C 69.462937 86.307344 81.615925 95.875 96 95.875 C 98.355054 95.875 100.64786 95.611568 102.85742 95.125 C 92.046007 103.50423 78.531764 108.44449 64 108.46289 C 34.756445 105.05169 11.581237 92.268451 11.279297 63.744141 C 11.295297 41.983031 25.570919 22.064084 40 21.058594 C 40.254615 21.04085 40.50521 21.030254 40.753906 21.029297 z M 84.746094 42.525391 C 88.393027 42.760259 90.827545 46.715178 94.425781 53.228516 C 98.263881 60.176036 84.279297 72.46875 84.279297 72.46875 C 84.279297 72.46875 90.669328 71.999452 96.75 68.580078 C 98.732604 75.152182 104.80701 79.9375 112 79.9375 C 113.18121 79.9375 114.32953 79.799459 115.4375 79.554688 C 110.03019 83.748837 103.27021 86.223193 96 86.232422 C 83.654206 84.792311 73.4716 80.009278 70.509766 69.970703 C 70.955602 69.644322 71.398027 69.30869 71.835938 68.962891 C 79.589097 62.840411 80.006844 51.982332 79.496094 44.763672 C 79.48038 44.541582 79.453631 44.32138 79.435547 44.099609 C 80.908291 43.203508 82.450276 42.637288 84 42.529297 C 84.254615 42.511553 84.502965 42.509733 84.746094 42.525391 z "
       id="path4136-0-1-9"
       transform="translate(0,924.36216)" />
    <path
       style="fill:#8eb4dc;fill-opacity:1;stroke:none;stroke-width:0.24952441;stroke-linecap:round;stroke-linejoin:round;stroke-miterlimit:4;stroke-dasharray:none;stroke-opacity:1"
       d="m 91.847656,32.009766 c -4.884585,0.629266 -9.42764,2.374997 -13.371094,4.972656 0.119474,0.636959 0.224651,1.281987 0.328126,1.927734 3.86615,-2.478753 8.294403,-4.142162 13.042968,-4.753906 1.335,-0.17199 5.107607,4.193754 6.779297,6.365234 1.671687,2.17151 4.549817,8.887266 5.044927,15.884766 0.0214,0.3026 0.0319,0.633184 0.0449,0.958984 0.0521,-1.1083 0.0213,-2.167115 -0.0449,-3.103515 -0.4951,-6.99756 -3.37324,-13.713256 -5.044927,-15.884766 -1.67169,-2.17148 -5.444297,-6.539177 -6.779297,-6.367187 z m 35.843754,29.285156 c 0.035,0.815437 0.0546,1.632594 0.0586,2.449219 0,0.252917 -0.0166,0.501681 -0.0195,0.753906 0.009,0.20398 0.0292,0.407192 0.0352,0.611328 0.0188,-0.4513 0.0332,-0.903375 0.0332,-1.359375 -0.004,-0.819961 -0.0407,-1.638336 -0.10742,-2.455078 z m -57.203129,8.689453 c -0.154174,0.112735 -0.309843,0.219619 -0.464843,0.330078 2.282398,11.187978 12.886165,16.423323 25.90039,17.941406 7.788722,-0.0099 15.182762,-2.771038 20.763602,-7.523858 1.18839,-1.738049 2.29107,-3.542012 3.30859,-5.402344 -5.87088,6.688787 -14.63919,10.767744 -24.072192,10.779718 -12.287029,-1.433193 -22.420618,-6.183234 -25.435547,-16.125 z"
       transform="translate(0,924.36216)"
       id="path4136-0-1-9-2-3-6-8-7-1-4"
       inkscape:connector-curvature="0"
       sodipodi:nodetypes="sccsscccssccccccccccccc" />
    <path
       style="fill:#8eb4dc;fill-opacity:1;stroke:none;stroke-width:0.49905157;stroke-linecap:round;stroke-linejoin:round;stroke-miterlimit:4;stroke-dasharray:none;stroke-opacity:0.44378698"
       d="M 56.064453,0.03125 C 25.906813,3.91642 2.1714981,28.990044 0.58007812,60.246094 c -0.066,1.0881 -0.10482437,2.179431 -0.11523437,3.269531 0,0.75939 0.0305406,1.510672 0.0566406,2.263672 0.0192,-0.55642 0.0248938,-1.114172 0.0585937,-1.669922 C 2.1714981,32.853325 25.906813,7.7797013 56.064453,3.8945312 c 2.67,-0.3439799 10.215224,8.3932978 13.558594,12.7363278 4.789622,8.677761 8.307013,19.291855 9.388672,25.625 0.149033,-0.09262 0.312117,-0.171697 0.466797,-0.259765 C 78.030437,28.943558 72.763684,16.847312 69.623047,12.767578 66.279677,8.4245481 58.734453,-0.31273 56.064453,0.03125 Z m 70.895117,54.051853 c -2.29257,15.280576 -9.64358,28.28857 -20.4459,37.942288 0.0207,-0.0073 0.0418,-0.01412 0.0625,-0.02148 -1.23911,1.1205 -2.51899,2.192791 -3.84179,3.212891 -0.0388,0.0085 -0.0784,0.0151 -0.11719,0.02344 -10.73511,8.167848 -24.072684,12.975998 -38.402346,12.994148 -28.68776,-3.3463 -51.520883,-15.723501 -52.664063,-43.121101 -0.0345,0.75244 -0.05614,1.507995 -0.05664,2.265625 0.30194,28.52438 23.477153,41.307556 52.720703,44.718756 31.51065,-0.04 58.051056,-22.866798 62.744726,-54.151278 0.40856,2.57699 0.86583,4.855219 0.9584,7.461819 0.0183,-0.63045 0.0469,-1.257678 0.0469,-1.892578 -0.016,-3.2665 -0.49383,-6.206622 -1.00527,-9.432522 z"
       transform="translate(0,924.36216)"
       id="path4136-0-1-9-2-3-6"
       inkscape:connector-curvature="0"
       sodipodi:nodetypes="sccccscccsscccccccccccccc" />
    <path
       style="fill:#419eb7;fill-opacity:1;stroke:#a0dcea;stroke-width:0.49905157;stroke-linecap:round;stroke-linejoin:round;stroke-miterlimit:4;stroke-dasharray:none;stroke-opacity:0.44378698"
       d="m 26.441901,733.93262 c -3.34337,-4.34303 -10.88852,-13.08044 -13.55852,-12.73646 -30.15764,3.88517 -53.89412,28.95981 -55.48554,60.21586 -0.066,1.0881 -0.1044,2.1778 -0.1148,3.2679 0,35.34995 28.54208,64.00705 63.75048,64.00705 35.208388,0 63.750468,-28.6571 63.750468,-64.00705 -0.016,-3.2665 -0.2804,-6.5271 -0.79184,-9.753 -4.69367,31.28445 -31.448,54.43285 -62.958638,54.47275 -29.2435502,-3.4112 -52.4194,-16.1954 -52.72134,-44.71975 0.016,-21.7611 14.29183,-41.68043 28.7209098,-42.68592 8.14768,-0.56781 13.1746002,7.50318 20.8508302,21.39832 7.67621,13.895 -20.2913902,38.48055 -20.2913902,38.48055 0,0 17.7158002,-1.2652 31.2774702,-11.97425 7.75316,-6.1225 8.1694,-16.9807 7.65865,-24.1993 -0.99021,-13.99517 -6.74337,-27.42364 -10.08672,-31.7667 z"
       id="path4136-0-1-9-2-3-6-8-7"
       inkscape:connector-curvature="0"
       sodipodi:nodetypes="zsccsccccszcssz" />
    <path
       inkscape:connector-curvature="0"
       style="fill:#419eb7;fill-opacity:1;stroke:#a0dcea;stroke-width:0.49905157;stroke-linecap:round;stroke-linejoin:round;stroke-miterlimit:4;stroke-dasharray:none;stroke-opacity:0.44378698"
       d="m 191.02408,727.19134 c -30.15764,3.88517 -53.89295,28.9588 -55.48437,60.21485 -0.066,1.0881 -0.10483,2.17943 -0.11524,3.26953 0,0.75939 0.0305,1.51067 0.0566,2.26367 0.0192,-0.55642 0.0249,-1.11417 0.0586,-1.66992 1.59142,-31.25605 25.32673,-56.32967 55.48437,-60.21484 2.67,-0.34398 10.21523,8.39329 13.5586,12.73632 3.34335,4.34306 9.09768,17.77046 10.08789,31.76563 0.0491,0.69353 0.0772,1.44593 0.10351,2.19922 0.0944,-2.16323 0.0261,-4.23105 -0.10351,-6.0625 -0.99021,-13.99517 -6.74454,-27.42257 -10.08789,-31.76563 -3.34337,-4.34303 -10.8886,-13.08031 -13.5586,-12.73633 z m 71.10939,53.73047 c -4.69367,31.28447 -31.44835,54.43277 -62.959,54.47267 -28.68776,-3.3464 -51.52088,-15.7235 -52.66406,-43.1211 -0.0345,0.75244 -0.0561,1.50799 -0.0566,2.26562 0.30194,28.52438 23.47715,41.30758 52.7207,44.7188 31.51065,-0.04 58.26533,-23.18822 62.959,-54.47271 0.40856,2.577 0.65157,5.17661 0.74414,7.78321 0.0183,-0.63046 0.0469,-1.25768 0.0469,-1.89258 -0.016,-3.2665 -0.27957,-6.52801 -0.79101,-9.75391 z"
       id="path4136-0-1-9-2-3-6-6"
       sodipodi:nodetypes="cccccsscccscccccccccccc" />
    <path
       style="fill:#419eb7;fill-opacity:1;stroke:#a0dcea;stroke-width:0.24952441;stroke-linecap:round;stroke-linejoin:round;stroke-miterlimit:4;stroke-dasharray:none;stroke-opacity:0.44378698"
       d="m 313.76845,754.17745 c -15.07882,1.94256 -26.94649,14.47957 -27.74219,30.10742 -0.033,0.54405 -0.0514,1.08972 -0.0566,1.63477 0,0.41868 0.0154,0.83327 0.0312,1.24805 0.009,-0.24532 0.0105,-0.49126 0.0254,-0.73633 0.7957,-15.62784 12.66337,-28.16486 27.74219,-30.10742 1.335,-0.17199 5.10761,4.1957 6.7793,6.36718 1.67168,2.17151 4.54982,8.88726 5.04492,15.88477 0.0214,0.30263 0.0319,0.63324 0.0449,0.95898 0.0521,-1.10834 0.0213,-2.16899 -0.0449,-3.10546 -0.4951,-6.99751 -3.37324,-13.71326 -5.04492,-15.88477 -1.67169,-2.17148 -5.4443,-6.53918 -6.7793,-6.36719 z m 35.55469,26.86524 c -2.34685,15.64207 -15.7232,27.21633 -31.47852,27.23633 -14.22806,-1.65968 -25.57807,-7.76067 -26.31836,-21.22852 -0.014,0.33861 -0.0427,0.67494 -0.043,1.01562 0.15096,14.262 11.73956,20.65378 26.36133,22.35938 15.75532,-0.02 29.13167,-11.59423 31.47852,-27.23633 0.21459,1.35353 0.32306,2.72031 0.36328,4.08985 0.0188,-0.45138 0.0332,-0.90336 0.0332,-1.35938 -0.008,-1.63324 -0.14077,-3.26402 -0.39648,-4.87695 z"
       id="path4136-0-1-9-2-3-6-8-7-1"
       inkscape:connector-curvature="0"
       sodipodi:nodetypes="sccccssscsssccccccccc" />
    <path
       style="fill:#419eb7;fill-opacity:1;stroke:#a0dcea;stroke-width:0.24952441;stroke-linecap:round;stroke-linejoin:round;stroke-miterlimit:4;stroke-dasharray:none;stroke-opacity:0.44378698"
       d="m -92.429917,769.90133 c -1.67169,-2.17149 -5.44426,-6.54015 -6.77926,-6.36816 -15.078823,1.94256 -26.947073,14.47974 -27.742773,30.1076 -0.033,0.54404 -0.0522,1.08888 -0.0574,1.63393 0,17.67479 14.27105,32.00319 31.875253,32.00319 17.60419,0 31.87523,-14.3284 31.87523,-32.00319 -0.008,-1.63323 -0.1402,-3.26352 -0.39591,-4.87645 -2.34685,15.64207 -15.72401,27.21614 -31.47933,27.23609 -14.621783,-1.70558 -26.209703,-8.09761 -26.360663,-22.35964 0.008,-10.88043 7.14591,-20.83999 14.36045,-21.34273 4.07384,-0.2839 6.5873,3.75155 10.425413,10.69905 3.83811,6.94742 -10.145693,19.24008 -10.145693,19.24008 0,0 8.857903,-0.6326 15.638743,-5.98708 3.87658,-3.06122 4.08469,-8.49026 3.82932,-12.09952 -0.49511,-6.99751 -3.37168,-13.71167 -5.04336,-15.88317 z"
       id="path4136-0-1-9-2-3-6-8-7-6"
       inkscape:connector-curvature="0"
       sodipodi:nodetypes="zsccsccccszcssz" />
    <path
       style="fill:#419eb7;fill-opacity:1;stroke:#a0dcea;stroke-width:0.12476221;stroke-linecap:round;stroke-linejoin:round;stroke-miterlimit:4;stroke-dasharray:none;stroke-opacity:0.44378698"
       d="m -190.69497,795.18316 c -0.83584,-1.08575 -2.72213,-3.27008 -3.38963,-3.18408 -7.5394,0.97128 -13.47353,7.23986 -13.87138,15.0538 -0.0165,0.27202 -0.0261,0.54444 -0.0286,0.81696 0,8.8374 7.13552,16.0016 15.93762,16.0016 8.8021,0 15.93762,-7.1642 15.93762,-16.0016 -0.004,-0.81661 -0.0701,-1.63176 -0.19796,-2.43822 -1.17342,7.82103 -7.862,13.60807 -15.73966,13.61804 -7.31089,-0.85279 -13.10485,-4.0488 -13.18033,-11.17982 0.004,-5.44021 3.57296,-10.41999 7.18022,-10.67136 2.03692,-0.14195 3.29366,1.87577 5.2127,5.34952 1.91906,3.47371 -5.07283,9.62004 -5.07283,9.62004 0,0 4.42894,-0.3163 7.81936,-2.99354 1.93829,-1.53061 2.04235,-4.24513 1.91467,-6.04976 -0.24757,-3.49876 -1.68585,-6.85584 -2.52169,-7.94158 z"
       id="path4136-0-1-9-2-3-6-8-7-6-9"
       inkscape:connector-curvature="0"
       sodipodi:nodetypes="zsccsccccszcssz" />
    <path
       style="fill:#419eb7;fill-opacity:1;stroke:#a0dcea;stroke-width:0.12476221;stroke-linecap:round;stroke-linejoin:round;stroke-miterlimit:4;stroke-dasharray:none;stroke-opacity:0.44378698"
       d="m 388.82282,759.58548 c -7.5394,0.97128 -13.47324,7.23879 -13.87109,15.05273 -0.0165,0.27202 -0.0268,0.54584 -0.0293,0.81836 0,0.19335 0.0225,0.38058 0.0293,0.57227 0.39874,-7.81303 6.33232,-14.07958 13.87109,-15.05078 0.6675,-0.086 2.55479,2.09784 3.39063,3.18359 0.83584,1.08574 2.27391,4.44265 2.52148,7.94141 0.008,0.10747 2.4e-4,0.24198 0.006,0.35547 0.0407,-0.62386 0.0311,-1.22585 -0.006,-1.74805 -0.24757,-3.49876 -1.68564,-6.85567 -2.52148,-7.94141 -0.83584,-1.08575 -2.72313,-3.26959 -3.39063,-3.18359 z m 17.77735,13.43164 c -1.17342,7.82103 -7.86062,13.60917 -15.73828,13.61914 -7.11111,-0.82949 -12.77213,-3.88711 -13.14649,-10.61523 -0.0183,0.2748 -0.0349,0.55034 -0.0351,0.82812 0.0755,7.13102 5.87075,10.3269 13.18164,11.17969 7.87766,-0.01 14.56486,-5.79811 15.73828,-13.61914 0.0882,0.55652 0.13671,1.11921 0.16601,1.68164 0.008,-0.21243 0.0332,-0.42029 0.0332,-0.63477 -0.004,-0.81661 -0.0714,-1.63299 -0.19922,-2.43945 z"
       id="path4136-0-1-9-2-3-6-8-7-6-9-5"
       inkscape:connector-curvature="0"
       sodipodi:nodetypes="cccccsccsscccccccccc" />
    <path
       style="fill:#8eb4dc;fill-opacity:1;stroke:none;stroke-width:0.12476221;stroke-linecap:round;stroke-linejoin:round;stroke-miterlimit:4;stroke-dasharray:none;stroke-opacity:0.44378698"
       d="M 109.96484 48.003906 C 107.49879 48.321601 105.20957 49.213476 103.22461 50.533203 C 103.30132 50.94397 103.39189 51.345865 103.45508 51.763672 C 105.38509 50.529045 107.5959 49.70167 109.96484 49.396484 C 110.63234 49.310484 112.51963 51.494328 113.35547 52.580078 C 114.19131 53.665818 115.62938 57.022724 115.87695 60.521484 C 115.88495 60.628954 115.87705 60.763473 115.88281 60.876953 C 115.92351 60.253103 115.91405 59.651116 115.87695 59.128906 C 115.62938 55.630146 114.19131 52.27324 113.35547 51.1875 C 112.51963 50.10175 110.63234 47.917906 109.96484 48.003906 z M 127.78516 61.800781 C 127.83301 62.490025 127.87161 63.179703 127.875 63.871094 C 127.875 63.952241 127.86974 64.032276 127.86914 64.113281 C 127.87845 64.245828 127.9013 64.377163 127.9082 64.509766 C 127.9162 64.297336 127.94141 64.08947 127.94141 63.875 C 127.93801 63.181125 127.87828 62.488382 127.78516 61.800781 z M 99.289062 66.943359 C 99.19412 67.013167 99.099482 67.084268 99.003906 67.152344 C 100.00766 72.963655 105.37576 75.674125 112.00391 76.447266 C 115.62516 76.442669 118.98541 75.205806 121.68359 73.123047 C 122.48207 72.028507 123.21686 70.881172 123.875 69.683594 C 120.94153 72.988675 116.68857 75.048759 112.00391 75.054688 C 105.84507 74.336286 100.78 71.94149 99.289062 66.943359 z "
       transform="translate(0,924.36216)"
       id="path4136-0-1-9-2-3-6-8-7-6-9-5-6" />
    <path
       style="fill:#419eb7;fill-opacity:1;stroke:#a0dcea;stroke-width:0.49905157;stroke-linecap:round;stroke-linejoin:round;stroke-miterlimit:4;stroke-dasharray:none;stroke-opacity:0.44378698"
       d="m 342.19963,831.13695 c -0.24869,9.6e-4 -0.49929,0.01 -0.7539,0.0273 -14.42908,1.0055 -28.70471,20.92445 -28.72071,42.68555 0.0112,1.05816 0.0634,2.08835 0.13672,3.10351 1.45506,-20.32626 14.94728,-38.17276 28.58399,-39.12304 8.14768,-0.5678 13.17338,7.50334 20.84961,21.39843 0.40424,0.73174 0.70409,1.49538 0.91992,2.28126 0.7063,-3.20985 0.55538,-6.27677 -0.91992,-8.94727 -7.43635,-13.46088 -12.38613,-21.45545 -20.09571,-21.42578 z m 86.89649,46.25195 c -1.82955,33.70392 -29.62489,60.46872 -63.65039,60.46872 -33.99573,0 -61.76922,-26.7186 -63.64258,-60.38083 -0.0578,1.01226 -0.0977,2.0271 -0.10742,3.04102 0,35.35001 28.5416,64.00592 63.75,64.00592 35.20839,0 63.75,-28.65591 63.75,-64.00592 -0.005,-1.04378 -0.0438,-2.08728 -0.0996,-3.12891 z"
       id="path4136-0-1-9-2-3-6-8-7-61"
       inkscape:connector-curvature="0"
       sodipodi:nodetypes="ccccsscscccsccsccc" />
    <path
       style="fill:#1d4b79;fill-opacity:1;stroke:none;stroke-width:0.49905157;stroke-linecap:round;stroke-linejoin:round;stroke-miterlimit:4;stroke-dasharray:none;stroke-opacity:0.44378698"
       d="m 41.208402,940.91046 c -0.24869,9.6e-4 -0.49929,0.01 -0.7539,0.0273 -14.42908,1.0055 -28.70471,18.95493 -28.72071,40.71603 0.0112,1.0582 0.0634,2.0883 0.13672,3.1035 1.45506,-20.3263 14.94728,-38.17275 28.58399,-39.12303 8.14768,-0.5678 13.17338,8.62817 20.84961,22.52327 0.40424,0.7317 0.438962,3.46492 0.654792,4.25082 0.7063,-3.2099 0.820508,-6.2768 -0.654792,-8.9473 -7.43635,-13.46089 -12.38613,-22.5803 -20.09571,-22.55063 z m 86.896498,44.28243 c -1.82955,33.70391 -29.624898,60.46871 -63.650398,60.46871 -33.99573,0 -61.9700854,-26.6918 -63.84344532,-60.35403 -0.0578,1.0122 -0.0977,2.0271 -0.10742,3.04098 0,35.35005 28.74246532,63.97915 63.95086532,63.97915 35.20839,0 63.750008,-28.6559 63.750008,-64.00593 -0.005,-1.04378 -0.0438,-2.08728 -0.0996,-3.12888 z"
       id="path4136-0-1-9-2-3-6-8-7-61-1"
       inkscape:connector-curvature="0"
       sodipodi:nodetypes="ccccsscscccsccsccc" />
    <path
       style="fill:#419eb7;fill-opacity:1;stroke:#a0dcea;stroke-width:0.24952441;stroke-linecap:round;stroke-linejoin:round;stroke-miterlimit:4;stroke-dasharray:none;stroke-opacity:0.44378698"
       d="m 250.84404,857.56931 c -0.24313,-0.0157 -0.49148,-0.0138 -0.74609,0.004 -7.21454,0.50274 -14.35138,10.4614 -14.35938,21.3418 0.004,0.38212 0.0207,0.75607 0.041,1.12695 0.42498,-10.48447 7.32493,-19.86032 14.31836,-20.34765 4.07384,-0.2839 6.58766,3.75171 10.42578,10.69921 0.29789,0.53923 0.47617,1.11361 0.57422,1.70899 0.20134,-1.37012 0.0642,-2.67455 -0.57422,-3.83008 -3.59824,-6.51327 -6.03276,-10.46826 -9.67969,-10.70312 z m -20.58984,22.58008 c -0.0111,0.29578 -0.0284,0.59072 -0.0312,0.88672 0,17.67477 14.27079,32.0039 31.875,32.0039 17.60419,0 31.875,-14.32913 31.875,-32.0039 -0.001,-0.26221 -0.0255,-0.52317 -0.0332,-0.78516 -0.6977,17.05501 -14.68344,30.66797 -31.84179,30.66797 -17.19226,0 -31.19733,-13.66725 -31.84375,-30.76953 z"
       id="path4136-0-1-9-2-3-6-8-7-6-8"
       inkscape:connector-curvature="0"
       sodipodi:nodetypes="ssccsscssccsccsc" />
    <path
       style="fill:#1d4b79;fill-opacity:1;stroke:none;stroke-width:0.24952441;stroke-linecap:round;stroke-linejoin:round;stroke-miterlimit:4;stroke-dasharray:none;stroke-opacity:0.44378698"
       d="m 84.667969,40.482422 0,0.0039 c -0.24313,-0.016 -0.491484,-0.014 -0.746094,0 -1.587102,0.110609 -3.379663,0.83371 -4.884178,1.768676 0.07509,0.667209 0.303876,1.200094 0.358284,1.871457 1.448195,-0.868845 3.002926,-1.412897 4.525894,-1.519039 4.07384,-0.2839 6.587661,3.751759 10.425781,10.699219 0.29789,0.5392 0.476169,1.113684 0.574219,1.708984 0.20134,-1.3701 0.0642,-2.674618 -0.574219,-3.830078 -3.59824,-6.5133 -6.032757,-10.468225 -9.679687,-10.703119 z m 43.095701,22.685547 c -0.004,0.103565 -0.0143,0.205284 -0.0195,0.308593 8.1e-4,0.0892 0.005,0.178366 0.006,0.267579 0,0.96644 -0.0301,1.924872 -0.0723,2.880859 0.0727,-0.88204 0.11915,-1.770997 0.11915,-2.671875 -0.001,-0.2622 -0.0255,-0.523156 -0.0332,-0.785156 z m -61.749998,9.710937 c -0.201336,0.116178 -0.403749,0.223035 -0.605469,0.335938 3.956914,13.157481 16.118173,22.742187 30.513672,22.742187 2.339086,0 4.616775,-0.260047 6.812505,-0.740234 1.3228,-1.020157 2.60268,-2.09245 3.84179,-3.212891 -3.33127,1.186184 -6.917614,1.832032 -10.654295,1.832032 -13.735267,0 -25.428302,-8.727822 -29.908203,-20.957032 z"
       id="path4136-0-1-9-2-3-6-8-7-6-8-0"
       inkscape:connector-curvature="0"
       sodipodi:nodetypes="cccccsccccccccccccsccscc"
       transform="translate(0,924.36216)" />
    <path
       style="fill:#419eb7;fill-opacity:1;stroke:#a0dcea;stroke-width:0.12476221;stroke-linecap:round;stroke-linejoin:round;stroke-miterlimit:4;stroke-dasharray:none;stroke-opacity:0.44378698"
       d="m 190.47354,870.55767 c -0.12157,-0.008 -0.24574,-0.007 -0.37305,0.002 -3.60726,0.25137 -7.17569,5.22971 -7.17969,10.66992 0.002,0.16091 0.0218,0.30987 0.0293,0.4668 0.29693,-5.1545 3.70169,-9.71867 7.15039,-9.95899 2.03692,-0.14195 3.29385,1.87586 5.21289,5.34961 0.13629,0.2467 0.21743,0.50879 0.26953,0.7793 0.1094,-0.69957 0.0558,-1.36812 -0.26953,-1.95703 -1.7991,-3.25664 -3.01638,-5.23414 -4.83984,-5.35157 z m -10.28516,11.16406 c -0.012,0.22863 -0.0233,0.45855 -0.0254,0.6875 0,8.8374 7.1354,16.00195 15.9375,16.00195 8.8021,0 15.9375,-7.16455 15.9375,-16.00195 -0.001,-0.21198 -0.0179,-0.42311 -0.0273,-0.63477 -0.28847,8.583 -7.29122,15.45704 -15.91016,15.45704 -8.63666,0 -15.65081,-6.9021 -15.91211,-15.50977 z"
       id="path4136-0-1-9-2-3-6-8-7-6-9-8"
       inkscape:connector-curvature="0"
       sodipodi:nodetypes="ssccsscssccsccsc" />
    <path
       style="fill:#1d4b79;fill-opacity:1;stroke:none;stroke-width:0.12476221;stroke-linecap:round;stroke-linejoin:round;stroke-miterlimit:4;stroke-dasharray:none;stroke-opacity:0.44378698"
       d="m 106.36999,976.5488 c -0.12157,-0.008 -0.24574,-0.007 -0.37305,0.002 -0.82673,0.0576 -1.64948,0.37216 -2.42969,0.875 0.043,0.36925 0.0789,0.73943 0.10938,1.11132 0.7478,-0.46302 1.53119,-0.7536 2.32031,-0.80859 2.03692,-0.14195 3.29385,1.87586 5.21289,5.34961 0.13629,0.2467 0.21743,0.5088 0.26953,0.7793 0.1094,-0.69956 0.0558,-1.36812 -0.26953,-1.95703 -1.7991,-3.25664 -3.01638,-5.23414 -4.83984,-5.35157 z m 21.53711,11.2168 c -0.0113,0.33651 -0.0504,0.66515 -0.082,0.99609 -0.008,0.691 -0.0405,1.37685 -0.0918,2.05664 0.11975,-0.79085 0.20117,-1.59353 0.20117,-2.41796 -0.001,-0.21198 -0.0179,-0.42311 -0.0273,-0.63477 z m -30.794929,5.08789 c -0.120676,0.0707 -0.242296,0.13287 -0.363282,0.20117 1.986078,6.56631 8.059131,11.34764 15.248051,11.34764 1.18402,0 2.31598,-0.1408 3.42637,-0.3867 0.74106,-0.5769 1.45686,-1.1843 2.14453,-1.8242 -1.74042,0.6567 -3.60067,1.0313 -5.5709,1.0313 -6.82296,0 -12.616488,-4.31611 -14.884769,-10.36921 z"
       id="path4136-0-1-9-2-3-6-8-7-6-9-8-8"
       inkscape:connector-curvature="0"
       sodipodi:nodetypes="ccccsscsccccccccccsccsc" />
  </g>
</svg>
